{"title":"Scott and Bailey S05E02 x264 RB58.mp4","uid":14381913,"size":518952852,"categoryP":"video","categoryS":"tv_shows","magnet":"?xt=urn:btih:e0373d056c37f521713008a9e1824ec9e26351c6&amp;dn=Scott+and+Bailey+S05E02+x264+RB58.mp4&amp;tr=udp%3A%2F%2Ftracker.leechers-paradise.org%3A6969&amp;tr=udp%3A%2F%2Fzer0day.ch%3A1337&amp;tr=udp%3A%2F%2Fopen.demonii.com%3A1337&amp;tr=udp%3A%2F%2Ftracker.coppersurfer.tk%3A6969&amp;tr=udp%3A%2F%2Fexodus.desync.com%3A6969","seeders":2,"leechers":0,"uploader":"RedBaron58","files":1,"time":1461240199,"description":"Scott and Bailey S05E02 x264 mp4\r\n \nhttp://www.imdb.com/title/tt1843678/\r\n\r\nTrailer:\r\n\r\nPlease be patient My intial upload speed is limited.\r\nThank you for your kind comments and feedback on my other torrents, your feedback is welcome.\r\n\r\n\r\nAbout the Episode:\r\nThe duo continue to investigate one of the biggest and darkest cases they have ever faced. \r\nIn the second edition, Rachel's safety is thrown into question when the killers change \r\nthe rules of their sick game. \r\nMeanwhile, as a police officer, Janet is rendered powerless to protect her daughter, \r\nbut she knows she must try to find a way to stop the madness.\r\n\r\nStarring Lesley Sharp and Suranne Jones\r\n\r\nI hope you enjoy.\r\n\r\n\r\nTechnical:\r\n\r\nGeneral\r\nComplete name                            : G:Scott and Bailey S05E02 x264 RB58.mp4\r\nFormat                                   : MPEG-4\r\nFormat profile                           : Base Media\r\nCodec ID                                 : isom\r\nFile size                                : 495 MiB\r\nDuration                                 : 45mn 28s\r\nOverall bit rate                         : 1 522 Kbps\r\nWriting application                      : Lavf54.63.104\r\n\r\nVideo\r\nID                                       : 1\r\nFormat                                   : AVC\r\nFormat/Info                              : Advanced Video Codec\r\nFormat profile                           :   \r\nFormat settings, CABAC                   : Yes\r\nFormat settings, ReFrames                : 4 frames\r\nCodec ID                                 : avc1\r\nCodec ID/Info                            : Advanced Video Coding\r\nDuration                                 : 45mn 28s\r\nBit rate                                 : 1 400 Kbps\r\nWidth                                    : 832 pixels\r\nHeight                                   : 468 pixels\r\nDisplay aspect ratio                     : 16:9\r\nFrame rate mode                          : Constant\r\nFrame rate                               : 25.000 fps\r\nColor space                              : YUV\r\nChroma subsampling                       : 4:2:0\r\nBit depth                                : 8 bits\r\nScan type                                : Progressive\r\nBits/(Pixel*Frame)                       : 0.144\r\nStream size                              : 455 MiB (92%)\r\nWriting library                          : x264 core 123 r2189 35cf912\r\nEncoding settings                        : cabac=1 / ref=3 / deblock=1:0:0\r\n\r\nAudio\r\nID                                       : 2\r\nFormat                                   : AAC\r\nFormat/Info                              : Advanced Audio Codec\r\nFormat profile                           : LC\r\nCodec ID                                 : 40\r\nDuration                                 : 45mn 28s\r\nBit rate mode                            : Constant\r\nBit rate                                 : 113 Kbps\r\nChannel(s)                               : 2 channels\r\nChannel positions                        : Front: L R\r\nSampling rate                            : 48.0 KHz\r\nCompression mode                         : Lossy\r\nStream size                              : 36.7 MiB (7%)","torrent":{"xt":"urn:btih:e0373d056c37f521713008a9e1824ec9e26351c6","amp;dn":"Scott+and+Bailey+S05E02+x264+RB58.mp4","amp;tr":["udp%3A%2F%2Ftracker.leechers-paradise.org%3A6969","udp%3A%2F%2Fzer0day.ch%3A1337","udp%3A%2F%2Fopen.demonii.com%3A1337","udp%3A%2F%2Ftracker.coppersurfer.tk%3A6969","udp%3A%2F%2Fexodus.desync.com%3A6969"],"infoHash":"e0373d056c37f521713008a9e1824ec9e26351c6","infoHashBuffer":{"type":"Buffer","data":[224,55,61,5,108,55,245,33,113,48,8,169,225,130,78,201,226,99,81,198]},"announce":[],"urlList":[]}}